<?xml version="1.0" standalone="no"?>
<!DOCTYPE svg PUBLIC "-//W3C//DTD SVG 20010904//EN"
 "http://www.w3.org/TR/2001/REC-SVG-20010904/DTD/svg10.dtd">
<svg version="1.0" xmlns="http://www.w3.org/2000/svg"
 width="180.000000pt" height="118.000000pt" viewBox="0 0 180.000000 118.000000"
 preserveAspectRatio="xMidYMid meet">

<g transform="translate(0.000000,118.000000) scale(0.100000,-0.100000)"
fill="#000000" stroke="none">
<path d="M435 1106 c-167 -41 -303 -181 -350 -362 -20 -75 -19 -210 1 -288 36
-141 135 -266 260 -327 66 -33 73 -34 184 -34 132 0 165 11 277 91 l64 46 -20
31 c-11 18 -24 32 -28 32 -4 0 -39 -21 -78 -47 -165 -111 -337 -97 -473 39
-207 206 -151 579 107 706 58 28 75 32 151 32 76 0 93 -4 150 -32 100 -49 136
-94 275 -343 138 -246 167 -281 251 -306 200 -58 368 171 276 378 -37 84 -108
136 -197 145 -43 5 -63 1 -106 -20 -30 -13 -69 -38 -88 -54 -34 -29 -34 -29
-17 -61 9 -18 20 -32 24 -32 4 0 33 18 66 40 66 45 114 52 173 23 96 -45 123
-196 51 -279 -44 -49 -82 -67 -135 -61 -74 8 -98 36 -233 278 -138 245 -187
308 -278 357 -108 58 -205 73 -307 48z"/>
<path d="M1190 1109 c-78 -15 -169 -63 -259 -136 -7 -5 28 -73 37 -73 5 0 33
18 63 41 89 67 131 82 234 83 77 1 98 -3 146 -25 239 -112 317 -447 156 -666
-78 -104 -178 -157 -302 -158 -71 0 -88 4 -147 33 -95 47 -146 108 -262 318
-138 250 -157 278 -209 309 -117 68 -254 28 -321 -94 -87 -161 -9 -360 158
-402 59 -15 122 0 184 44 26 18 51 35 56 39 8 5 -21 78 -32 78 -1 0 -25 -16
-54 -35 -59 -41 -86 -50 -134 -42 -76 12 -134 90 -134 177 1 177 202 248 293
103 13 -21 70 -123 128 -227 123 -224 184 -296 295 -348 65 -31 75 -33 184
-33 110 0 118 2 182 33 213 104 322 365 258 616 -26 101 -62 167 -132 238 -62
64 -149 111 -237 128 -62 11 -88 11 -151 -1z"/>
</g>
</svg>
